<svg width="174" height="65" viewBox="0 0 174 65" fill="none" xmlns="http://www.w3.org/2000/svg">
<path d="M29.576 23.21V50H22.128V23.21H29.576ZM47.7635 28.492C50.2208 28.492 52.1715 29.3153 53.6155 30.962C55.0595 32.5833 55.7815 34.7873 55.7815 37.574V50H48.3335V38.562C48.3335 37.346 48.0168 36.396 47.3835 35.712C46.7501 35.0027 45.9015 34.648 44.8375 34.648C43.7228 34.648 42.8488 35.0027 42.2155 35.712C41.5821 36.396 41.2655 37.346 41.2655 38.562V50H33.8175V28.682H41.2655V31.722C41.9241 30.7593 42.8108 29.9867 43.9255 29.404C45.0401 28.796 46.3195 28.492 47.7635 28.492ZM71.3822 34.876H68.0382V50H60.5522V34.876H58.2342V28.682H60.5522V28.492C60.5522 25.756 61.3502 23.666 62.9462 22.222C64.5676 20.7527 66.8856 20.018 69.9002 20.018C70.5082 20.018 70.9769 20.0307 71.3062 20.056V26.402C71.1036 26.3767 70.8249 26.364 70.4702 26.364C69.6596 26.364 69.0642 26.554 68.6842 26.934C68.3042 27.2887 68.0889 27.8713 68.0382 28.682H71.3822V34.876ZM81.492 21.88V50H74.044V21.88H81.492ZM84.5175 39.322C84.5175 37.118 84.9101 35.1927 85.6955 33.546C86.5061 31.8993 87.5955 30.6327 88.9635 29.746C90.3568 28.8593 91.9021 28.416 93.5995 28.416C95.0688 28.416 96.3355 28.7073 97.3995 29.29C98.4635 29.8727 99.2868 30.658 99.8695 31.646V28.682H107.317V50H99.8695V47.036C99.2868 48.024 98.4508 48.8093 97.3615 49.392C96.2975 49.9747 95.0435 50.266 93.5995 50.266C91.9021 50.266 90.3568 49.8227 88.9635 48.936C87.5955 48.0493 86.5061 46.7827 85.6955 45.136C84.9101 43.464 84.5175 41.526 84.5175 39.322ZM99.8695 39.322C99.8695 37.954 99.4895 36.8773 98.7295 36.092C97.9948 35.3067 97.0828 34.914 95.9935 34.914C94.8788 34.914 93.9541 35.3067 93.2195 36.092C92.4848 36.852 92.1175 37.9287 92.1175 39.322C92.1175 40.69 92.4848 41.7793 93.2195 42.59C93.9541 43.3753 94.8788 43.768 95.9935 43.768C97.0828 43.768 97.9948 43.3753 98.7295 42.59C99.4895 41.8047 99.8695 40.7153 99.8695 39.322ZM139.416 28.492C142.101 28.492 144.204 29.3027 145.724 30.924C147.269 32.5453 148.042 34.762 148.042 37.574V50H140.594V38.562C140.594 37.422 140.277 36.5353 139.644 35.902C139.01 35.2687 138.149 34.952 137.06 34.952C135.97 34.952 135.109 35.2687 134.476 35.902C133.842 36.5353 133.526 37.422 133.526 38.562V50H126.078V38.562C126.078 37.422 125.761 36.5353 125.128 35.902C124.52 35.2687 123.671 34.952 122.582 34.952C121.467 34.952 120.593 35.2687 119.96 35.902C119.326 36.5353 119.01 37.422 119.01 38.562V50H111.562V28.682H119.01V31.494C119.668 30.582 120.517 29.86 121.556 29.328C122.62 28.7707 123.836 28.492 125.204 28.492C126.774 28.492 128.168 28.834 129.384 29.518C130.625 30.202 131.6 31.1647 132.31 32.406C133.07 31.2407 134.07 30.3033 135.312 29.594C136.553 28.8593 137.921 28.492 139.416 28.492ZM172.49 39.094C172.49 39.6767 172.452 40.2593 172.376 40.842H158.278C158.354 42.0073 158.671 42.8813 159.228 43.464C159.811 44.0213 160.545 44.3 161.432 44.3C162.673 44.3 163.56 43.7427 164.092 42.628H172.034C171.705 44.0973 171.059 45.4147 170.096 46.58C169.159 47.72 167.968 48.6193 166.524 49.278C165.08 49.9367 163.484 50.266 161.736 50.266C159.633 50.266 157.759 49.8227 156.112 48.936C154.491 48.0493 153.211 46.7827 152.274 45.136C151.362 43.4893 150.906 41.5513 150.906 39.322C150.906 37.0927 151.362 35.1673 152.274 33.546C153.186 31.8993 154.453 30.6327 156.074 29.746C157.721 28.8593 159.608 28.416 161.736 28.416C163.839 28.416 165.701 28.8467 167.322 29.708C168.943 30.5693 170.21 31.8107 171.122 33.432C172.034 35.028 172.49 36.9153 172.49 39.094ZM164.89 37.232C164.89 36.32 164.586 35.6107 163.978 35.104C163.37 34.572 162.61 34.306 161.698 34.306C160.786 34.306 160.039 34.5593 159.456 35.066C158.873 35.5473 158.493 36.2693 158.316 37.232H164.89Z" fill="#121212"/>
<path d="M12.5247 34.2649C16.802 32.3624 19.7719 29.7018 19.1583 28.3223C18.5448 26.9429 14.58 27.367 10.3028 29.2696C6.02553 31.1721 3.05557 33.8327 3.66915 35.2121C4.28272 36.5916 8.2475 36.1675 12.5247 34.2649Z" fill="#FD915A"/>
<path d="M18.6449 24.454C18.8747 22.9618 15.3101 21.1749 10.6833 20.4627C6.0565 19.7506 2.11956 20.383 1.8899 21.8751C1.66023 23.3673 5.22481 25.1541 9.85161 25.8663C14.4783 26.5784 18.4153 25.946 18.6449 24.454Z" fill="#FD915A"/>
<path d="M20.3062 20.8993C21.306 19.7681 19.2729 16.3379 15.7653 13.2379C12.2576 10.1378 8.60355 8.54174 7.60377 9.67298C6.60399 10.8042 8.63705 14.2344 12.1448 17.3345C15.6524 20.4346 19.3065 22.0306 20.3062 20.8993Z" fill="#FD915A"/>
<path d="M23.6144 18.8219C25.067 18.4108 25.2114 14.426 23.9368 9.92159C22.6622 5.41718 20.4512 2.09888 18.9985 2.50995C17.5459 2.92102 17.4015 6.90579 18.6761 11.4102C19.9507 15.9146 22.1617 19.2329 23.6144 18.8219Z" fill="#FD915A"/>
<path d="M32.5976 11.5504C33.9608 7.07195 33.8951 3.0851 32.4508 2.64547C31.0065 2.20583 28.7306 5.47988 27.3673 9.95829C26.0042 14.4367 26.0699 18.4235 27.5142 18.8632C28.9585 19.3028 31.2345 16.0288 32.5976 11.5504Z" fill="#FD915A"/>
<path d="M39.0164 17.6016C42.5841 14.5707 44.6839 11.1809 43.7063 10.0304C42.7288 8.87985 39.0443 10.4042 35.4767 13.435C31.9091 16.466 29.8094 19.8557 30.7869 21.0063C31.7643 22.1569 35.4489 20.6326 39.0164 17.6016Z" fill="#FD915A"/>
<path d="M41.1387 26.1649C45.7787 25.5442 49.3778 23.8279 49.1776 22.3315C48.9774 20.8351 45.0537 20.1253 40.4137 20.746C35.7739 21.3668 32.1747 23.083 32.3749 24.5795C32.5751 26.0758 36.4988 26.7857 41.1387 26.1649Z" fill="#FD915A"/>
</svg>
